# xmcd
#
# Track frame offsets:
# 150
# 8264
# 20534
# 28970
# 38967
# 52724
# 61647
# 73711
# 85469
# 96550
#
# Disc length: 1441 seconds
#
#
# Revision: 0
# Processed by: cddbd v1.5.1PL0 Copyright (c) Steve Scherf et al.
# Submitted via: FreeRIP 2.60 
#
DISCID=77059f0a
DTITLE=Willie Nelson - I'll Stay Around
DYEAR=2003
DGENRE=Country
TTITLE0=Things to Remember
TTITLE1=I Can't Find The Time
TTITLE2=Slow Down Old World
TTITLE3=A new Way to Cry
TTITLE4=No Tomorrow In Sight
TTITLE5=Why Are You Picking On Me
TTITLE6=Following Me Around
TTITLE7=I Hope So
TTITLE8=Go Away
TTITLE9=I'll Stay Around
EXTD=
EXTT0=
EXTT1=
EXTT2=
EXTT3=
EXTT4=
EXTT5=
EXTT6=
EXTT7=
EXTT8=
EXTT9=
PLAYORDER=
